<svg width="8" height="11" viewBox="0 0 8 11" fill="none" xmlns="http://www.w3.org/2000/svg">
<path d="M0.2395 6.53301L1.225 0.192015C1.23223 0.145055 1.25405 0.10156 1.28737 0.0676835C1.32068 0.0338071 1.36381 0.0112653 1.41064 0.00324801C1.45747 -0.00476929 1.50564 0.00214388 1.54833 0.0230093C1.59101 0.0438748 1.62606 0.0776358 1.6485 0.119515L2.7085 2.10901L0.2395 6.53301ZM7.24 8.07151L6.3015 2.23601C6.29444 2.19517 6.27632 2.15705 6.24913 2.12577C6.22193 2.09449 6.18669 2.07126 6.14723 2.05858C6.10777 2.04591 6.06559 2.04428 6.02527 2.05388C5.98495 2.06347 5.94802 2.08392 5.9185 2.11301L0 8.07151L3.275 9.91701C3.4805 10.032 3.731 10.032 3.9365 9.91701L7.24 8.07151ZM4.5785 2.97901L3.82 1.52751C3.80083 1.49108 3.77206 1.46057 3.73681 1.43929C3.70157 1.41801 3.66117 1.40676 3.62 1.40676C3.57883 1.40676 3.53843 1.41801 3.50319 1.43929C3.46794 1.46057 3.43917 1.49108 3.42 1.52751L0.0895 7.49602L4.5785 2.97901Z" fill="black"/>
</svg>